<svg xmlns="http://www.w3.org/2000/svg" width="800" height="800" class="icon" viewBox="0 0 1024 1024"><path fill="#3D5AFE" d="m172.6 806.2 45.3 45.3c25 25 65.5 25 90.5 0L540.8 619l-90.5-90.5-277.7 277.7z"/><path fill="#FFEA00" d="m676.5 483.2 174.9-174.9c25-25 25-65.5 0-90.5l-45.3-45.3L586 392.7l90.5 90.5z"/><path fill="#8C9EFF" d="m540.738 347.452 220.12-220.12 45.255 45.254-220.12 220.12z"/><path fill="#FFEA00" d="M127.364 760.869 405.042 483.19l45.254 45.254-277.678 277.678z"/><path fill="#3D5AFE" d="m172.624 308.355 135.763-135.763L806.185 670.39 670.422 806.153z"/><path fill="#8C9EFF" d="m818.5 838.6 20-19.8c20.9-20.8 24.9-53.1 9.8-78.4l-42.1-70-135.8 135.8 70.2 42c25.1 15 57.2 11 77.9-9.6z"/><path fill="#FFEA00" d="m172.6 308.4 135.8-135.8c-25-25-65.5-25-90.5 0l-45.3 45.3c-25 24.9-25 65.5 0 90.5z"/></svg>